<svg width="29" height="29" viewBox="0 0 29 29" fill="none" xmlns="http://www.w3.org/2000/svg">
<path fill-rule="evenodd" clip-rule="evenodd" d="M11.2778 3.22223C6.82883 3.22223 3.22223 6.82883 3.22223 11.2778C3.22223 15.7267 6.82883 19.3334 11.2778 19.3334C13.5027 19.3334 15.5144 18.4336 16.9739 16.9739C18.4336 15.5144 19.3334 13.5027 19.3334 11.2778C19.3334 6.82883 15.7267 3.22223 11.2778 3.22223ZM0 11.2778C0 5.04925 5.04925 0 11.2778 0C17.5064 0 22.5556 5.04925 22.5556 11.2778C22.5556 13.8103 21.7194 16.1496 20.3102 18.0317L28.5281 26.2497C29.1573 26.8788 29.1573 27.899 28.5281 28.5281C27.899 29.1573 26.8788 29.1573 26.2497 28.5281L18.0317 20.3102C16.1496 21.7194 13.8103 22.5556 11.2778 22.5556C5.04925 22.5556 0 17.5064 0 11.2778Z" fill="black"/>
</svg>
