<svg width="51" height="47" viewBox="0 0 51 47" fill="none" xmlns="http://www.w3.org/2000/svg">
<path fill-rule="evenodd" clip-rule="evenodd" d="M32.425 5.37108C28.2755 5.37108 24.9119 9.08155 24.9119 13.6587C24.9119 14.2188 24.9618 14.7634 25.0565 15.2881C25.2089 16.1332 24.9845 17.0077 24.453 17.6393C23.9215 18.2709 23.1476 18.5827 22.3722 18.4777C16.9961 17.7502 12.1058 15.2998 8.16787 11.647C8.24458 13.2635 8.75258 14.9806 9.85505 16.7795L11.5076 19.4759L8.79387 20.7534L8.27027 21C8.65946 21.4909 9.12738 21.9952 9.64982 22.4907C10.2426 23.0528 10.8154 23.5201 11.241 23.8466C11.4524 24.0088 11.6238 24.1337 11.7387 24.2156C11.7961 24.2564 11.8391 24.2863 11.8656 24.3045L11.8927 24.323L11.8947 24.3247L15.6651 26.8461L11.7199 29.0222C11.5246 29.1299 11.3296 29.226 11.1355 29.3114C11.9275 30.0475 12.8914 30.7254 13.9169 31.2601L17.3006 33.0245L14.4668 35.7213C12.92 37.1935 11.364 38.2908 9.34737 38.8709C12.3354 40.6296 15.7593 41.6289 19.402 41.6289C31.1004 41.6289 40.5224 31.331 40.5224 18.7105V17.3149L41.5576 16.5127C43.1737 15.2609 44.3162 13.568 45.1342 11.6326H41.4115H39.8743L39.2136 10.1016C38.0038 7.29897 35.4161 5.37108 32.425 5.37108ZM4.96358 24.9746C4.50464 25.5544 4.28704 26.3337 4.38686 27.1155C4.6615 29.2666 5.82929 31.1193 7.11969 32.5335C7.47012 32.9176 7.8449 33.2863 8.23842 33.6378C8.17829 33.6564 8.11769 33.6741 8.05654 33.691C6.88463 34.0146 5.30549 34.082 2.67199 33.7974C1.65383 33.6873 0.681948 34.2912 0.239513 35.3088C-0.202922 36.3261 -0.021498 37.5402 0.693585 38.3472C5.42155 43.6831 12.0611 47 19.402 47C33.3097 47 44.7177 35.0878 45.3628 20.0544C48.5017 17.1457 50.0732 13.2082 50.921 9.62545C51.1116 8.82057 50.9531 7.96375 50.492 7.30541C50.0311 6.64708 49.3195 6.26157 48.5655 6.26157H42.8355C40.6332 2.49776 36.7953 0 32.425 0C25.9272 0 20.5982 5.5212 20.0834 12.5427C15.5333 11.242 11.541 8.4034 8.59063 4.55368C8.05249 3.85149 7.22608 3.50181 6.40027 3.62687C5.57446 3.75194 4.86406 4.33435 4.5174 5.17055C3.04526 8.72134 2.76156 12.817 4.40933 16.978L3.84037 17.2459C2.71365 17.7762 2.11978 19.1477 2.45373 20.4478C2.90379 22.2001 3.92273 23.7473 4.96358 24.9746Z" fill="black"/>
</svg>
