<svg width="65" height="49" viewBox="0 0 65 49" fill="none" xmlns="http://www.w3.org/2000/svg">
<path fill-rule="evenodd" clip-rule="evenodd" d="M25.9624 33.5516V13.9101C32.4371 17.1911 37.4517 20.3607 43.3825 23.7778C38.4909 26.6993 32.4371 29.9773 25.9624 33.5516ZM62.0458 4.14151C60.9289 2.55685 59.0254 1.32332 56.9988 0.914935C51.0421 -0.303245 13.8807 -0.30671 7.92725 0.914935C6.3021 1.24303 4.85497 2.03607 3.61183 3.26822C-1.62618 8.50389 0.0151651 36.5811 1.27773 41.1292C1.80865 43.0978 2.49499 44.5176 3.35936 45.4496C4.473 46.6817 5.99776 47.5301 7.74916 47.9105C12.6537 49.003 37.9211 49.6139 56.8951 48.0746C58.6433 47.7465 60.1907 46.8708 61.4112 45.5863C66.2543 40.3715 65.9241 10.7175 62.0458 4.14151Z" fill="black"/>
</svg>
