<svg width="48" height="47" viewBox="0 0 48 47" fill="none" xmlns="http://www.w3.org/2000/svg">
<path fill-rule="evenodd" clip-rule="evenodd" d="M14.0872 0.288414C10.1803 0.461021 6.79395 1.39631 4.05959 4.06241C1.31567 6.74252 0.372339 10.0714 0.19562 13.8571C0.0857673 16.22 -0.556594 34.071 1.30612 38.7524C2.56225 41.9107 5.03626 44.339 8.29123 45.573C9.81005 46.1514 11.5439 46.543 14.0872 46.6573C35.3531 47.5997 43.2362 47.0866 46.5604 38.7524C47.1503 37.2689 47.5563 35.5727 47.6685 33.0886C48.6404 12.2123 47.5109 7.68719 43.8046 4.06241C40.8649 1.19104 37.4069 -0.763564 14.0872 0.288414ZM14.2829 42.4587C11.9546 42.3561 10.6913 41.9762 9.84828 41.6567C7.72766 40.8496 6.1348 39.2964 5.31569 37.2321C3.89716 33.6749 4.36764 16.7802 4.4942 14.0465C4.61839 11.3687 5.17241 8.92139 7.10199 7.03204C9.49008 4.69948 12.5755 3.55631 33.5835 4.48468C36.325 4.60596 38.8302 5.14734 40.7645 7.03204C43.1526 9.36458 44.3371 12.4089 43.3723 32.9004C43.2673 35.1746 42.878 36.4087 42.5508 37.2321C40.3896 42.6552 35.4176 43.4081 14.2829 42.4587ZM33.8152 11.0206C33.8152 12.5648 35.0976 13.8204 36.6809 13.8204C38.2642 13.8204 39.549 12.5648 39.549 11.0206C39.549 9.47648 38.2642 8.22196 36.6809 8.22196C35.0976 8.22196 33.8152 9.47648 33.8152 11.0206ZM11.6704 23.4717C11.6704 30.0868 17.1606 35.4501 23.9333 35.4501C30.7059 35.4501 36.1961 30.0868 36.1961 23.4717C36.1961 16.8566 30.7059 11.4968 23.9333 11.4968C17.1606 11.4968 11.6704 16.8566 11.6704 23.4717ZM15.9737 23.4717C15.9737 19.1798 19.5368 15.6977 23.9333 15.6977C28.3297 15.6977 31.8928 19.1798 31.8928 23.4717C31.8928 27.7659 28.3297 31.2492 23.9333 31.2492C19.5368 31.2492 15.9737 27.7659 15.9737 23.4717Z" fill="black"/>
</svg>
